<svg height="29" viewBox="0 0 212 29" width="212" xmlns="http://www.w3.org/2000/svg"><g fill="none" fill-rule="evenodd"><path d="m26.3323185 10.5119987c-1.7849261-5.26087253-6.5051275-8.70978528-11.7325637-9.12240273l-.5406712 6.72139598c2.6101611.20986577 4.9770202 1.92720805 5.869839 4.56511405 1.1965906 3.5364161-.6900671 7.3709128-4.2271947 8.5746175-3.5364161 1.1965906-7.37091271-.6900671-8.57461741-4.2264832-1.1965906-3.5364161.69006712-7.37091278 4.22648321-8.57461748.0071141 0 .0135168-.0071141.0206309-.0071141l-.0028457-.0078255.0028457.00142282 1.8930604-4.04436242-4.04365102-2.35974496-.01280537.02632215c-.00640268.00213422-.01280536.00497986-.02134228.00711409-7.06642953 2.37397315-10.86677852 10.0223356-8.4728859 17.0752483 2.39389261 7.0529128 10.06217447 10.8468591 17.13571807 8.4600806 7.0735437-2.38749 10.8738927-10.035141 8.48-17.0887651" fill="#004a7f"/><path d="m40.0367669 6.72253423c5.9466711 0 9.861557 3.61965097 9.0861208 12.18786577h-13.0010067c.4802013 3.0661745 2.3270201 4.3218121 5.8726845 4.3218121 2.8435034 0 4.6910336-.6281745 6.4631544-1.4775973l.258953.1109798v4.6163356c-1.3666174.7391544-3.8046174 1.5145906-7.3132886 1.5145906-7.7927785 0-11.5234094-4.0998523-11.5234094-10.8219597 0-6.1309262 4.0258658-10.45202687 10.156792-10.45202687zm-3.8408994 8.19899327h7.1283222c-.1472618-2.622255-1.1446577-3.9148859-3.2504295-3.9148859-2.0680672 0-3.4346846 1.181651-3.8778927 3.9148859zm22.8491182 8.1996336c.5171946 0 .7754362-.1109799 1.1083758-.2219598l.2212483.1479732v4.2108322c-.6651678.2582416-1.8468188.5541879-3.2874228.5541879-3.4716778 0-5.6507248-1.2193557-5.6507248-5.060255v-21.31595973l6.3528859-.03699329v20.24457722c0 .9973959.4062147 1.4775973 1.2556376 1.4775973zm12.9134322-21.64313694c8.3469664 0 14.7738389 3.80390604 14.7738389 13.14826844 0 9.3813557-6.4268725 12.8900269-14.7738389 12.8900269h-9.3073692v-26.03829534zm-.3692215 20.79378524c4.7273154 0 7.9037584-1.8468188 7.9037584-7.6455168 0-5.6877181-3.176443-7.90375837-7.9037584-7.90375837h-1.8468188v15.54927517zm17.5824832 5.2447946v-20.31429528h6.3528859v20.31429528zm0-22.38236239v-5.13424161h6.3158926v5.13424161zm22.6326364 3.95195034.295235-1.88381208h5.835691v20.31429533h-5.170523l-.591182-2.438c-1.366617 1.8468188-3.250429 2.9174899-6.020657 2.9174899-5.060255 0-8.49494-3.5086711-8.49494-10.4890201 0-7.1283222 3.693638-10.78496648 8.679906-10.78496648 2.474282 0 4.210121.9234094 5.46647 2.36401343zm-.22196 12.81604025v-9.3443624c-.886416-.738443-1.920094-1.1446577-3.323705-1.1446577-2.585973 0-4.173838 2.1050604-4.173838 6.0939329 0 3.8778926 1.698845 5.5774496 4.062859 5.5774496 1.477597 0 2.548268-.443208 3.434684-1.1823624zm15.536328-11.2279611c1.071382-1.88381204 2.954483-3.80461741 5.650724-3.80461741.628175 0 1.218645.07398658 1.625571.14797316v5.98366445l-.22196.1479731c-.480201-.1109798-1.144657-.1849664-1.772832-.1849664-2.290027 0-3.767624.4062148-4.949275 1.6618523v12.8900269h-6.352886v-20.31358391h5.57745zm9.176754-5.54002949v-5.13424161h6.315893v5.13424161zm0 22.38236239v-20.31429528h6.352886v20.31429528zm19.260911-20.79471004c6.205625 0 10.895235 3.98887244 10.895235 10.60071144 0 6.6111275-4.68961 10.6739865-10.895235 10.6739865-6.204912 0-10.858953-4.062859-10.858953-10.6739865 0-6.611839 4.654041-10.60071144 10.858953-10.60071144zm0 16.65765104c2.659249 0 4.432081-1.9570873 4.432081-6.0199463 0-4.0628591-1.772832-6.0206578-4.432081-6.0206578-2.622255 0-4.395087 1.9577987-4.395087 6.0206578 0 4.062859 1.772832 6.0199463 4.395087 6.0199463zm30.586834-16.65701077c5.947383 0 9.862268 3.61965097 9.086121 12.18786577h-13.001007c.480201 3.0661745 2.32702 4.3218121 5.872685 4.3218121 2.843503 0 4.691033-.6281745 6.463865-1.4775973l.258953.1109798v4.6163356c-1.367328.7391544-3.804617 1.5145906-7.314 1.5145906-7.792778 0-11.523409-4.0998523-11.523409-10.8219597 0-6.1309262 4.025866-10.45202687 10.156792-10.45202687zm-3.840899 8.19899327h7.129033c-.147973-2.622255-1.145369-3.9148859-3.251141-3.9148859-2.068067 0-3.434684 1.181651-3.877892 3.9148859zm23.454243-.1104819c4.136134 1.0343893 6.130926 2.4010067 6.130926 6.1309262 0 4.4320805-3.176443 7.0173423-8.309973 7.0173423-3.435396 0-5.46647-.738443-7.091329-1.7358389v-4.7643088l.221248-.1109798c1.661852 1.2556376 3.914886 2.0687785 6.352886 2.0687785 1.994792 0 2.918201-.6651678 2.918201-1.7365503 0-.9596913-.554899-1.2556376-2.364724-1.6988457l-1.809826-.4424966c-3.212725-.7761477-5.391772-2.6229665-5.391772-6.2056242 0-4.02586575 2.991477-6.64812078 7.940752-6.64812078 2.696241 0 4.690322.44320805 6.241906 1.10766443v4.58005365l-.22196.1109799c-1.402899-.7391544-3.50796-1.3296242-5.835691-1.3296242-1.920094 0-2.511275.5904698-2.511275 1.5515839 0 .922698.554188 1.3296242 1.920805 1.6618524zm-34.834731 6.8476712c2.014 0 3.646685 1.6326845 3.646685 3.6466845s-1.632685 3.6466846-3.646685 3.6466846-3.646684-1.6326846-3.646684-3.6466846 1.632684-3.6466845 3.646684-3.6466845z" fill="#000"/></g></svg>